<svg xmlns="http://www.w3.org/2000/svg" viewBox="0 0 200 200" fill="none" stroke="currentColor" stroke-width="2" stroke-linecap="round" stroke-linejoin="round">
  <!-- Goose Quill Pen - Monochrome Drawing -->

  <!-- Quill shaft (main feather stem) -->
  <path d="M 100 180 Q 95 140 92 100 Q 90 60 88 20" stroke-width="3" />

  <!-- Quill tip (writing nib) -->
  <path d="M 100 180 L 95 185 M 100 180 L 105 185" stroke-width="2" />
  <path d="M 100 180 L 100 190" stroke-width="2.5" />

  <!-- Left side barbs (feather strands) -->
  <path d="M 92 30 Q 70 35 60 40" stroke-width="1.5" opacity="0.8" />
  <path d="M 92 40 Q 65 45 50 50" stroke-width="1.5" opacity="0.8" />
  <path d="M 91 50 Q 60 55 45 60" stroke-width="1.5" opacity="0.8" />
  <path d="M 91 60 Q 55 65 40 70" stroke-width="1.5" opacity="0.8" />
  <path d="M 91 70 Q 50 75 35 82" stroke-width="1.5" opacity="0.8" />
  <path d="M 91 80 Q 48 88 32 95" stroke-width="1.5" opacity="0.7" />
  <path d="M 91 90 Q 50 98 35 105" stroke-width="1.5" opacity="0.7" />
  <path d="M 92 100 Q 55 108 42 115" stroke-width="1.5" opacity="0.7" />
  <path d="M 92 110 Q 60 118 48 125" stroke-width="1.5" opacity="0.6" />
  <path d="M 93 120 Q 65 127 55 133" stroke-width="1.5" opacity="0.6" />
  <path d="M 94 130 Q 70 136 62 142" stroke-width="1.5" opacity="0.5" />
  <path d="M 95 140 Q 75 145 68 150" stroke-width="1.5" opacity="0.5" />

  <!-- Right side barbs (feather strands) -->
  <path d="M 92 30 Q 114 35 124 40" stroke-width="1.5" opacity="0.8" />
  <path d="M 92 40 Q 119 45 134 50" stroke-width="1.5" opacity="0.8" />
  <path d="M 91 50 Q 124 55 139 60" stroke-width="1.5" opacity="0.8" />
  <path d="M 91 60 Q 129 65 144 70" stroke-width="1.5" opacity="0.8" />
  <path d="M 91 70 Q 134 75 149 82" stroke-width="1.5" opacity="0.8" />
  <path d="M 91 80 Q 136 88 152 95" stroke-width="1.5" opacity="0.7" />
  <path d="M 91 90 Q 134 98 149 105" stroke-width="1.5" opacity="0.7" />
  <path d="M 92 100 Q 129 108 142 115" stroke-width="1.5" opacity="0.7" />
  <path d="M 92 110 Q 124 118 136 125" stroke-width="1.5" opacity="0.6" />
  <path d="M 93 120 Q 119 127 129 133" stroke-width="1.5" opacity="0.6" />
  <path d="M 94 130 Q 114 136 122 142" stroke-width="1.5" opacity="0.5" />
  <path d="M 95 140 Q 109 145 116 150" stroke-width="1.5" opacity="0.5" />

  <!-- Finer detail barbs (shorter strands) -->
  <path d="M 92 35 Q 82 38 75 40" stroke-width="1" opacity="0.6" />
  <path d="M 92 45 Q 78 48 68 52" stroke-width="1" opacity="0.6" />
  <path d="M 91 55 Q 75 58 65 62" stroke-width="1" opacity="0.6" />
  <path d="M 91 65 Q 72 68 62 72" stroke-width="1" opacity="0.6" />
  <path d="M 91 75 Q 70 78 60 82" stroke-width="1" opacity="0.5" />
  <path d="M 91 85 Q 68 88 58 92" stroke-width="1" opacity="0.5" />

  <path d="M 92 35 Q 102 38 109 40" stroke-width="1" opacity="0.6" />
  <path d="M 92 45 Q 106 48 116 52" stroke-width="1" opacity="0.6" />
  <path d="M 91 55 Q 109 58 119 62" stroke-width="1" opacity="0.6" />
  <path d="M 91 65 Q 112 68 122 72" stroke-width="1" opacity="0.6" />
  <path d="M 91 75 Q 114 78 124 82" stroke-width="1" opacity="0.5" />
  <path d="M 91 85 Q 116 88 126 92" stroke-width="1" opacity="0.5" />
</svg>
